<?xml version="1.0" standalone="no"?>
<!DOCTYPE svg PUBLIC "-//W3C//DTD SVG 20010904//EN"
 "http://www.w3.org/TR/2001/REC-SVG-20010904/DTD/svg10.dtd">
<svg version="1.0" xmlns="http://www.w3.org/2000/svg"
 width="308.000000pt" height="483.000000pt" viewBox="0 0 308.000000 483.000000"
 preserveAspectRatio="xMidYMid meet">

<g transform="translate(0.000000,483.000000) scale(0.100000,-0.100000)"
fill="#000000" stroke="none">
<path d="M1250 4720 c-264 -57 -474 -160 -677 -332 -246 -208 -433 -533 -490
-852 -25 -143 -22 -432 5 -563 57 -263 162 -468 364 -707 139 -163 215 -275
285 -416 84 -171 96 -188 152 -214 43 -20 62 -21 316 -21 254 0 272 1 310 21
91 48 114 135 115 437 l0 177 -95 0 -95 0 -2 -227 -3 -228 -232 -3 -233 -2
-61 122 c-95 190 -158 281 -333 483 -268 310 -379 680 -321 1070 41 274 162
512 365 716 189 190 403 308 662 365 93 21 404 24 493 5 169 -36 356 -115 500
-209 39 -26 120 -96 180 -157 197 -197 304 -394 362 -665 25 -118 25 -392 0
-508 -52 -244 -146 -421 -351 -661 -189 -221 -283 -380 -356 -600 -37 -110
-80 -294 -80 -341 0 -34 -28 -78 -61 -95 -27 -14 -82 -16 -437 -13 l-408 3
-49 -26 c-73 -37 -109 -99 -114 -196 -3 -67 0 -80 29 -139 51 -104 53 -104
510 -113 l335 -6 0 -50 0 -50 -298 -7 c-164 -3 -313 -9 -331 -12 -76 -14 -139
-117 -140 -227 0 -89 31 -152 97 -193 45 -28 56 -30 177 -34 l130 -5 0 -78 0
-79 95 0 95 0 0 63 c-1 90 -14 144 -46 190 -45 63 -82 77 -230 85 l-129 7 0
50 0 50 323 7 c300 7 326 9 351 28 54 37 80 84 90 157 17 121 -17 205 -102
253 -41 24 -47 24 -407 31 -201 4 -366 8 -368 8 -2 1 -2 22 0 49 l3 47 431 6
432 7 45 26 c103 60 128 106 167 304 35 178 66 275 130 407 62 127 121 215
240 355 279 329 389 564 421 905 25 273 -22 546 -135 780 -182 374 -487 642
-879 770 -164 53 -251 65 -471 64 -146 0 -211 -5 -276 -19z"/>
<path d="M1463 3938 c-74 -72 -118 -145 -162 -270 -38 -110 -60 -224 -68 -358
l-6 -105 -42 -40 c-37 -35 -43 -47 -49 -95 -13 -118 -26 -314 -20 -319 3 -3
35 3 72 13 142 39 159 41 181 22 11 -10 23 -31 26 -46 11 -48 28 -54 145 -54
117 0 134 6 145 54 3 15 15 36 26 46 22 19 39 17 181 -22 37 -10 69 -16 72
-13 6 5 -7 201 -20 319 -6 48 -12 60 -49 95 l-42 40 -7 113 c-13 230 -76 430
-176 564 -37 49 -114 117 -133 118 -5 0 -38 -28 -74 -62z"/>
<path d="M1437 2643 c-18 -17 -2 -78 47 -178 l54 -110 47 99 c72 150 73 237 1
167 -40 -39 -55 -39 -91 -1 -28 30 -45 36 -58 23z"/>
</g>
</svg>
